<svg width="164" height="50" viewBox="0 0 164 50" fill="none" xmlns="http://www.w3.org/2000/svg">
<path d="M12.8392 12.787H4.96451V17.705H13.6952V21.4755H0V0.819824H13.3528V4.5903H4.96451V8.85258H12.8392V12.787Z" fill="#464646"/>
<path d="M28.5889 21.1473C27.733 21.4752 26.0211 21.8031 24.3092 21.8031C19.1735 21.8031 16.092 18.8523 16.092 14.0982C16.092 9.67197 19.1735 6.06543 24.9939 6.06543C26.1923 6.06543 27.733 6.22936 28.7601 6.72116L28.0753 10.1638C27.2194 9.99984 26.3634 9.8359 24.9939 9.8359C22.4261 9.8359 20.7142 11.6392 20.8854 14.0982C20.8854 16.8851 22.7685 18.3605 25.1651 18.3605C26.3634 18.3605 27.2194 18.1965 27.9042 17.8687L28.5889 21.1473Z" fill="#464646"/>
<path d="M42.7974 21.1473C41.9415 21.4752 40.2296 21.8031 38.5177 21.8031C33.382 21.8031 30.3005 18.8523 30.3005 14.0982C30.3005 9.67197 33.382 6.06543 39.2024 6.06543C40.4007 6.06543 41.9415 6.22936 42.9686 6.72116L42.2838 10.1638C41.4279 9.99984 40.5719 9.8359 39.3736 9.8359C36.8058 9.8359 35.0939 11.6392 35.265 14.0982C35.265 16.8851 37.1481 18.3605 39.5448 18.3605C40.7431 18.3605 41.5991 18.1965 42.2838 17.8687L42.7974 21.1473Z" fill="#464646"/>
<path d="M48.9605 15.5736C49.1317 17.5408 51.186 18.3605 53.4115 18.3605C55.1234 18.3605 56.4929 18.1965 57.6912 17.7047L58.376 20.8195C56.8352 21.4752 54.781 21.8031 52.7267 21.8031C47.4198 21.8031 44.3384 18.8523 44.3384 14.0982C44.3384 10.3277 46.735 6.06543 52.2131 6.06543C57.3488 6.06543 59.2319 9.83591 59.2319 13.6064C59.2319 14.426 59.0607 15.0818 59.0607 15.4096H48.9605V15.5736ZM54.781 12.2949C54.781 11.1474 54.2674 9.3441 52.0419 9.3441C49.9876 9.3441 49.1317 11.1474 48.9605 12.2949H54.781Z" fill="#464646"/>
<path d="M66.9352 6.55737V11.9672H71.8997V6.55737H76.8642V21.4753H71.8997V15.5737H66.9352V21.4753H62.1418V6.55737H66.9352Z" fill="#464646"/>
<path d="M85.424 6.55737V18.0327H90.2173V6.55737H95.0106V18.1967H96.7225L96.5513 26.2294H92.9563L92.7852 21.3114H80.4595V6.55737H85.424Z" fill="#464646"/>
<path d="M104.426 2.29507C104.426 3.60654 103.399 4.59014 101.858 4.59014C100.317 4.59014 99.2903 3.60654 99.2903 2.29507C99.2903 0.983602 100.317 0 101.858 0C103.399 0 104.426 0.983602 104.426 2.29507ZM99.4615 21.4753V6.55735H104.255V21.4753H99.4615Z" fill="#464646"/>
<path d="M117.094 21.4756L116.751 20.0002H116.58C115.553 21.1477 114.012 21.8034 112.129 21.8034C109.048 21.8034 106.994 19.6723 106.994 17.2133C107.165 13.2789 110.76 11.4756 116.409 11.4756V11.3117C116.409 10.492 115.896 9.34448 113.499 9.34448C111.958 9.34448 110.246 9.83628 109.219 10.492L108.363 7.54121C109.39 6.88547 111.616 6.22974 114.355 6.22974C119.491 6.22974 121.202 9.18054 121.202 12.6232V17.869C121.202 19.3444 121.202 20.6559 121.374 21.4756H117.094ZM116.58 14.4264C114.012 14.4264 111.958 14.9182 111.958 16.7215C111.958 17.869 112.814 18.5248 113.841 18.5248C115.04 18.5248 116.067 17.7051 116.409 16.8854C116.409 16.7215 116.58 16.3936 116.58 16.0658V14.4264Z" fill="#464646"/>
<path d="M138.835 6.55737V21.4753H134.042V9.99998H130.618V12.7869C130.618 16.3934 130.104 19.0163 128.392 20.3278C127.365 21.3114 125.996 21.8032 123.77 21.8032L123.257 18.1967C123.941 18.0327 124.626 17.8688 124.968 17.377C125.824 16.5573 125.996 15.0819 125.996 12.6229V6.55737H138.835Z" fill="#464646"/>
<path d="M154.242 10.1638C153.557 9.8359 152.53 9.50804 151.161 9.50804C148.764 9.50804 147.223 10.6556 146.881 12.4588H153.386V15.4096H147.052C147.395 17.3769 149.107 18.3605 151.332 18.3605C152.53 18.3605 153.729 18.0326 154.413 17.7047L155.098 20.9834C154.242 21.4752 152.359 21.8031 150.476 21.8031C145.169 21.8031 141.745 18.8523 141.745 14.0982C141.745 8.8523 145.854 6.06543 150.99 6.06543C152.53 6.06543 154.242 6.3933 155.098 6.8851L154.242 10.1638Z" fill="#464646"/>
<path d="M164 4.59007C164 6.39334 162.459 8.03268 160.405 8.03268C158.351 8.03268 156.81 6.55727 156.81 4.59007C156.81 2.7868 158.351 1.14746 160.405 1.14746C162.459 1.31139 164 2.7868 164 4.59007ZM157.837 4.59007C157.837 6.06547 158.864 7.04907 160.405 7.04907C161.946 7.04907 162.973 5.90154 162.973 4.42613C162.973 3.11467 161.946 1.96713 160.405 1.96713C159.036 2.13106 157.837 3.2786 157.837 4.59007ZM160.063 6.22941H159.036V3.11467C159.207 3.11467 159.72 2.95073 160.405 2.95073C161.09 2.95073 161.432 3.11467 161.775 3.11467C161.946 3.2786 162.117 3.44253 162.117 3.7704C162.117 4.09827 161.775 4.42613 161.432 4.42613C161.775 4.59007 161.946 4.754 162.117 5.2458C162.288 5.7376 162.288 5.90154 162.288 6.06547H161.09C161.09 6.06547 160.919 5.7376 160.919 5.57367C160.919 5.2458 160.747 5.08187 160.405 5.08187H160.063V6.22941ZM160.063 4.42613H160.405C160.747 4.42613 161.09 4.2622 161.09 4.09827C161.09 3.7704 160.919 3.7704 160.576 3.7704C160.405 3.7704 160.405 3.7704 160.234 3.7704V4.42613H160.063Z" fill="#464646"/>
<path d="M9.58664 28.6885V33.6065C13.0104 33.9344 15.9207 35.9016 15.9207 39.5081C15.9207 43.2786 13.0104 45.0818 9.58664 45.4097V49.8359H6.16284V45.4097C2.91023 45.0818 0 43.2786 0 39.5081C0 35.7376 2.91023 33.9344 6.33403 33.6065V28.6885H9.58664ZM6.33403 35.9016C4.45094 36.3934 3.76618 37.7048 3.76618 39.5081C3.76618 41.3114 4.62213 42.6228 6.33403 43.1146V35.9016ZM9.58664 43.1146C11.2985 42.7868 12.1545 41.3114 12.1545 39.5081C12.1545 37.7048 11.2985 36.3934 9.58664 35.9016V43.1146Z" fill="#464646"/>
<path d="M29.9583 39.344C29.9583 43.4423 26.8769 45.4095 23.6243 45.4095C20.2005 45.4095 17.4614 43.2784 17.4614 39.5079C17.4614 35.9014 20.0293 33.4424 23.7955 33.4424C27.5616 33.6063 29.9583 35.9014 29.9583 39.344ZM21.3988 39.5079C21.3988 41.4751 22.2547 42.9505 23.7955 42.9505C25.165 42.9505 26.1921 41.6391 26.1921 39.5079C26.1921 37.8686 25.5074 36.0653 23.7955 36.0653C22.0836 36.0653 21.3988 37.8686 21.3988 39.5079Z" fill="#464646"/>
<path d="M32.1836 37.7052C32.1836 36.2298 32.1836 34.9183 32.0125 33.9347H35.2651L35.4363 35.574C36.2922 34.4265 37.6617 33.7708 39.3736 33.7708C41.9415 33.7708 44.3381 35.9019 44.3381 39.5084C44.3381 43.6068 41.5991 45.574 38.8601 45.574C37.4905 45.574 36.2922 45.0822 35.7786 44.2625V50.0002H32.0125V37.7052H32.1836ZM35.9498 40.3281C35.9498 40.656 35.9498 40.8199 35.9498 41.1478C36.121 42.1314 36.977 42.7871 38.1753 42.7871C39.716 42.7871 40.7431 41.4756 40.7431 39.5084C40.7431 37.7052 39.8872 36.3937 38.1753 36.3937C37.1481 36.3937 36.121 37.2134 35.9498 38.197C35.9498 38.3609 35.9498 38.6888 35.9498 38.8527V40.3281Z" fill="#464646"/>
<path d="M55.979 33.7708V36.3937H52.5552V45.0822H48.789V36.3937H45.3652V33.7708H55.979Z" fill="#464646"/>
<path d="M60.2588 40.6558C60.43 42.1312 61.9707 42.787 63.6826 42.787C64.8809 42.787 65.908 42.623 66.9352 42.2952L67.4487 44.7542C66.2504 45.246 64.7097 45.4099 63.169 45.4099C59.0604 45.4099 56.835 43.1148 56.835 39.6722C56.835 36.7214 58.7181 33.6067 62.8266 33.6067C66.5928 33.6067 68.1335 36.3936 68.1335 39.3444C68.1335 40.0001 68.1335 40.4919 67.9623 40.8198H60.2588V40.6558ZM64.5385 38.1968C64.5385 37.3772 64.1961 35.9018 62.4842 35.9018C60.9435 35.9018 60.2588 37.2132 60.2588 38.1968H64.5385Z" fill="#464646"/>
<path d="M78.9188 29.5083V35.5738H85.0816V29.5083H88.8478V45.2459H85.0816V38.6886H78.9188V45.2459H75.1526V29.5083H78.9188Z" fill="#464646"/>
</svg>
